<svg xmlns="http://www.w3.org/2000/svg" viewBox="0 0 32 32">
  <circle cx="16" cy="16" r="16" fill="#007acc"/>
  <!-- Spoon (diagonal top-right to bottom-left) -->
  <g transform="rotate(45 16 16)" fill="white">
     <path d="M15 14 L15 26 A1 1 0 0 0 17 26 L17 14 Z" /> <!-- Handle -->
     <ellipse cx="16" cy="10" rx="3.5" ry="5" /> <!-- Bowl -->
  </g>
  <!-- Fork (diagonal top-left to bottom-right) -->
  <g transform="rotate(-45 16 16)" fill="white">
     <path d="M15 14 L15 26 A1 1 0 0 0 17 26 L17 14 Z" /> <!-- Handle -->
     <path d="M13 6 L13 12 L19 12 L19 6 L18 6 L18 11 L17 11 L17 6 L15 6 L15 11 L14 11 L14 6 Z" /> <!-- Tines -->
  </g>
</svg>
